<svg xmlns="http://www.w3.org/2000/svg" version="1.1" xmlns:xlink="http://www.w3.org/1999/xlink" width="512" height="512"><svg xmlns="http://www.w3.org/2000/svg" width="512" height="512" viewBox="0 0 512 512">
  <!-- Background circle -->
  <circle cx="256" cy="256" r="240" fill="#2196F3" stroke="#1976D2" stroke-width="8"></circle>
  
  <!-- QR Code representation -->
  <rect x="156" y="156" width="200" height="200" fill="white" rx="8"></rect>
  
  <!-- QR Code pattern -->
  <g fill="#2196F3">
    <!-- Corner squares -->
    <rect x="170" y="170" width="40" height="40" rx="4"></rect>
    <rect x="302" y="170" width="40" height="40" rx="4"></rect>
    <rect x="170" y="302" width="40" height="40" rx="4"></rect>
    
    <!-- Center square -->
    <rect x="236" y="236" width="40" height="40" rx="4"></rect>
    
    <!-- Pattern dots -->
    <rect x="220" y="180" width="8" height="8"></rect>
    <rect x="230" y="180" width="8" height="8"></rect>
    <rect x="250" y="180" width="8" height="8"></rect>
    <rect x="260" y="180" width="8" height="8"></rect>
    <rect x="280" y="180" width="8" height="8"></rect>
    <rect x="290" y="180" width="8" height="8"></rect>
    
    <rect x="180" y="220" width="8" height="8"></rect>
    <rect x="190" y="220" width="8" height="8"></rect>
    <rect x="220" y="220" width="8" height="8"></rect>
    <rect x="280" y="220" width="8" height="8"></rect>
    <rect x="290" y="220" width="8" height="8"></rect>
    <rect x="320" y="220" width="8" height="8"></rect>
    
    <rect x="180" y="250" width="8" height="8"></rect>
    <rect x="200" y="250" width="8" height="8"></rect>
    <rect x="220" y="250" width="8" height="8"></rect>
    <rect x="280" y="250" width="8" height="8"></rect>
    <rect x="300" y="250" width="8" height="8"></rect>
    <rect x="320" y="250" width="8" height="8"></rect>
    
    <rect x="180" y="280" width="8" height="8"></rect>
    <rect x="220" y="280" width="8" height="8"></rect>
    <rect x="280" y="280" width="8" height="8"></rect>
    <rect x="290" y="280" width="8" height="8"></rect>
    <rect x="320" y="280" width="8" height="8"></rect>
    
    <rect x="220" y="320" width="8" height="8"></rect>
    <rect x="230" y="320" width="8" height="8"></rect>
    <rect x="250" y="320" width="8" height="8"></rect>
    <rect x="260" y="320" width="8" height="8"></rect>
    <rect x="280" y="320" width="8" height="8"></rect>
    <rect x="290" y="320" width="8" height="8"></rect>
  </g>
  
  <!-- Beacon signal waves -->
  <g fill="none" stroke="white" stroke-width="4" opacity="0.8">
    <circle cx="256" cy="120" r="15"></circle>
    <circle cx="256" cy="120" r="25"></circle>
    <circle cx="256" cy="120" r="35"></circle>
  </g>
  
  <!-- Magnifying glass -->
  <g fill="none" stroke="white" stroke-width="6">
    <circle cx="380" cy="380" r="25"></circle>
    <line x1="400" y1="400" x2="420" y2="420"></line>
  </g>
</svg><style>@media (prefers-color-scheme: light) { :root { filter: none; } }
@media (prefers-color-scheme: dark) { :root { filter: none; } }
</style></svg>